Jump_normalized_Motion_pl10
version=1
nRows=23
nColumns=43
inDegrees=yes
endheader
time		pelvis_tilt		pelvis_list		pelvis_rotation		pelvis_tx		pelvis_ty		pelvis_tz		hip_flexion_r		hip_adduction_r		hip_rotation_r		knee_angle_r		ankle_angle_r		subtalar_angle_r		mtp_angle_r		hip_flexion_l		hip_adduction_l		hip_rotation_l		knee_angle_l		ankle_angle_l		subtalar_angle_l		mtp_angle_l		lumbar_extension		lumbar_bending		lumbar_rotation		neck_flexion		neck_lateral_bending		neck_rotation		arm_flex_r		arm_add_r		arm_rot_r		elbow_flex_r		pro_sup_r		wrist_flex_r		wrist_dev_r		hand_finger_flex_r		arm_flex_l		arm_add_l		arm_rot_l		elbow_flex_l		pro_sup_l		wrist_flex_l		wrist_dev_l		hand_finger_flex_l		
0.160833		-0.197791		-15.656972		87.137883		-0.030194		1.623914		1.639807		88.410493		-9.395552		10.893767		-139.528518		26.169199		10.915693		8.094030		82.799125		-5.360082		3.151229		-142.508145		30.822800		6.743521		8.192368		-48.181868		-4.421855		2.462184		31.405683		7.532782		-3.804175		73.121550		-27.960132		14.686244		69.601603		103.216589		3.264963		0.242502		-11.118936		81.037011		-17.315218		15.749048		65.473058		96.640650		-8.212087		3.292829		-14.273958		
0.163889		-0.149608		-15.773643		87.258222		-0.030474		1.624050		1.637564		88.250860		-9.454268		10.925445		-139.591828		26.042552		10.946802		8.138270		82.532864		-5.235198		3.130295		-142.555009		30.826958		6.626451		8.216719		-47.867443		-4.380518		2.467583		31.258671		7.626722		-3.856823		73.673893		-27.863310		14.762619		69.641794		103.056117		3.258016		0.321078		-11.241177		81.938743		-17.151858		16.231221		65.357361		96.695436		-8.308816		3.264150		-14.407642		
0.166944		-0.107180		-15.947305		87.382072		-0.030626		1.624408		1.635380		88.107885		-9.485508		10.953982		-139.550413		25.892965		10.991584		8.167679		82.288918		-5.112922		3.163232		-142.531544		30.843182		6.508642		8.231605		-47.512911		-4.352522		2.445278		31.212355		7.702196		-3.901140		74.252410		-27.739435		14.892634		69.638646		102.926681		3.213233		0.430113		-11.364975		82.924086		-16.966094		16.773681		65.102257		96.766376		-8.359567		3.272591		-14.528272		
0.170000		-0.131254		-15.772720		87.581879		-0.030908		1.625186		1.632850		87.605213		-9.656977		11.058505		-139.627795		25.681589		10.976935		8.363357		81.635651		-4.918213		3.044219		-142.481027		30.760656		6.278891		8.301709		-47.526168		-4.415341		2.476653		30.963112		8.126959		-4.155642		74.704424		-28.044992		15.113055		69.921676		102.045845		2.889362		0.752481		-12.031189		84.223185		-16.747831		18.116951		64.557086		96.723289		-8.988601		2.782375		-15.188742		
0.173056		-0.075868		-16.004408		87.660956		-0.031056		1.625338		1.630536		87.545547		-9.628832		11.092104		-139.638168		25.605440		11.004313		8.378207		81.477695		-4.912252		3.038980		-142.475474		30.760214		6.265467		8.310847		-47.115635		-4.387822		2.486095		30.977953		8.125262		-4.165719		75.240820		-27.863919		15.112511		69.987934		102.000147		2.855097		0.789729		-12.090844		84.971914		-16.546442		18.281011		64.564245		96.743308		-8.927837		2.771315		-15.195526		
0.176111		-0.009712		-16.204502		87.778954		-0.031227		1.625592		1.628215		87.441580		-9.624751		11.085699		-139.640471		25.363647		11.067215		8.416250		81.271876		-4.875729		3.109309		-142.428056		30.755275		6.236423		8.337987		-46.691143		-4.355385		2.478147		30.977943		8.231878		-4.220745		75.825499		-27.716850		15.275803		69.892209		101.897720		2.813581		1.005822		-12.241484		86.042447		-16.431846		19.004992		64.165933		96.877817		-8.712994		2.813629		-15.212921		
0.179167		0.056389		-16.335071		87.915995		-0.031371		1.626003		1.625779		87.242381		-9.642198		11.086567		-139.647997		25.132156		11.082297		8.459812		80.986256		-4.839610		3.155299		-142.369123		30.715984		6.265933		8.372608		-46.364660		-4.328950		2.474659		30.849961		8.416636		-4.284626		76.364199		-27.587905		15.324622		69.904597		101.782443		2.752614		1.184772		-12.405282		87.029808		-16.304717		19.632904		63.914027		97.055281		-8.564382		2.736259		-15.274086		
0.182222		0.127998		-16.429284		88.067473		-0.031526		1.626426		1.623259		87.006916		-9.662749		11.081822		-139.682112		24.879695		11.073324		8.508995		80.653285		-4.811193		3.203790		-142.314353		30.693679		6.325837		8.420067		-46.072062		-4.285061		2.466772		30.737578		8.599535		-4.340733		76.913286		-27.442096		15.345611		69.890633		101.693380		2.722955		1.353197		-12.560164		88.003297		-16.160677		20.235831		63.650764		97.267571		-8.407003		2.625089		-15.350433		
0.185278		0.213037		-16.523257		88.224247		-0.031707		1.626931		1.620708		86.761494		-9.670340		11.063506		-139.679528		24.606523		11.058970		8.557270		80.282061		-4.765424		3.264465		-142.238614		30.692550		6.393671		8.474335		-45.785141		-4.219702		2.449893		30.626124		8.745122		-4.386078		77.476918		-27.282201		15.370925		69.863430		101.653708		2.728198		1.482217		-12.687830		88.943100		-16.005554		20.770615		63.407200		97.467583		-8.240055		2.516113		-15.428944		
0.188333		0.313592		-16.579573		88.402853		-0.031867		1.627504		1.618119		86.473164		-9.680122		11.024335		-139.676437		24.268263		11.038473		8.609704		79.861517		-4.696826		3.360294		-142.161673		30.727408		6.458157		8.541602		-45.532349		-4.126863		2.425262		30.483661		8.878782		-4.429404		78.058541		-27.140226		15.446673		69.816173		101.657790		2.756264		1.585815		-12.808101		89.900310		-15.872242		21.347267		63.129613		97.662525		-8.047837		2.407887		-15.522958		
0.191389		0.430801		-16.610672		88.597019		-0.032008		1.628111		1.615460		86.145750		-9.688627		10.968990		-139.667570		23.899181		11.001180		8.667795		79.386259		-4.610298		3.477546		-142.082064		30.797613		6.508487		8.620638		-45.305280		-4.009667		2.398181		30.323268		8.992293		-4.468884		78.648166		-27.021965		15.567666		69.776012		101.686211		2.780436		1.644101		-12.928997		90.839258		-15.739351		21.913828		62.860388		97.822740		-7.877106		2.288722		-15.644755		
0.194444		0.520778		-16.749958		88.737228		-0.032185		1.628590		1.612719		85.920279		-9.644326		10.964871		-139.647341		23.698310		10.978957		8.696346		78.987609		-4.544459		3.528664		-141.979895		30.822552		6.530975		8.660906		-44.976436		-3.910826		2.383925		30.189996		9.045223		-4.489994		79.145787		-26.903489		15.605379		69.856840		101.699748		2.774926		1.631547		-12.993026		91.536056		-15.572174		22.164792		62.852082		97.890830		-7.807190		2.197861		-15.713092		
0.197500		0.680557		-16.754510		88.975737		-0.032306		1.629158		1.610018		85.596780		-9.649148		10.871896		-139.671237		23.145002		10.966151		8.724395		78.461542		-4.422035		3.700741		-141.911678		31.012842		6.479681		8.742020		-44.738404		-3.743620		2.350944		30.006476		9.136056		-4.541466		79.792513		-26.805869		15.889813		69.702904		101.765496		2.781277		1.693621		-13.090029		92.581731		-15.468329		22.918462		62.414375		98.051005		-7.613954		2.185574		-15.797584		
0.200556		0.827674		-16.744617		89.191773		-0.032471		1.629965		1.607140		85.189550		-9.628436		10.775827		-139.627102		22.735848		10.864415		8.772368		77.858370		-4.300337		3.852908		-141.788403		31.124389		6.460166		8.830812		-44.557802		-3.586025		2.312901		29.791792		9.250198		-4.575815		80.359677		-26.731235		16.087428		69.694972		101.769081		2.743917		1.667988		-13.209028		93.443668		-15.362521		23.460248		62.208501		98.162940		-7.566858		2.027992		-15.933785		
0.203611		0.945458		-16.878935		89.346515		-0.032640		1.630514		1.604256		84.962613		-9.570699		10.737137		-139.587831		22.422115		10.835775		8.784349		77.417797		-4.233662		3.926639		-141.667482		31.209431		6.408534		8.877282		-44.207559		-3.470017		2.297398		29.665305		9.303486		-4.595680		80.869951		-26.603011		16.197738		69.684777		101.764747		2.729195		1.678313		-13.263477		94.162911		-15.204566		23.804651		62.099867		98.251814		-7.508891		1.975251		-15.968621		
0.206667		1.123304		-16.852647		89.586293		-0.032751		1.631266		1.601284		84.573644		-9.551951		10.596657		-139.569930		21.810219		10.726009		8.818370		76.808083		-4.158397		4.089645		-141.562149		31.371852		6.310771		8.983644		-44.012008		-3.288948		2.272903		29.438268		9.447252		-4.623301		81.491026		-26.508585		16.465592		69.550954		101.727301		2.723929		1.731041		-13.375728		95.115849		-15.116681		24.534652		61.742753		98.440552		-7.419526		1.845177		-16.038805		
0.209722		1.278758		-16.887545		89.780870		-0.032929		1.632049		1.598247		84.228464		-9.513449		10.479896		-139.512291		21.338314		10.590540		8.867312		76.260378		-4.126902		4.194876		-141.425067		31.449902		6.258960		9.090579		-43.768561		-3.135761		2.263395		29.292513		9.552705		-4.626861		82.049756		-26.401108		16.637543		69.477496		101.646327		2.719725		1.764318		-13.486770		95.915479		-14.976425		25.043418		61.519721		98.567583		-7.394579		1.667825		-16.101645		
0.212778		1.422796		-16.965367		89.962844		-0.033109		1.632750		1.595105		83.937903		-9.469410		10.386543		-139.454951		20.833189		10.494071		8.909399		75.767714		-4.136412		4.269593		-141.285943		31.507172		6.212896		9.191936		-43.465070		-2.992674		2.269973		29.096393		9.656211		-4.645557		82.559520		-26.345087		16.816071		69.471803		101.567456		2.753103		1.806410		-13.575564		96.644131		-14.842934		25.531021		61.371888		98.662270		-7.324037		1.513218		-16.122974		
0.215833		1.526661		-17.135055		90.116032		-0.033313		1.633338		1.591911		83.746747		-9.415783		10.360275		-139.390927		20.463687		10.467889		8.914675		75.376997		-4.171090		4.273755		-141.129768		31.521819		6.191524		9.236769		-43.059473		-2.880269		2.264193		28.967304		9.710446		-4.661983		82.992697		-26.286672		16.926306		69.521506		101.535985		2.776873		1.828584		-13.612430		97.230286		-14.666128		25.820431		61.335473		98.700727		-7.251512		1.442258		-16.117964		
0.218889		1.702116		-17.153194		90.327264		-0.033466		1.634048		1.588741		83.464143		-9.377123		10.220080		-139.349923		19.576875		10.336226		8.940638		74.859176		-4.208209		4.390751		-141.021261		31.611819		6.126931		9.369087		-42.809850		-2.718786		2.293375		28.727231		9.856755		-4.708842		83.567541		-26.370404		17.293765		69.504456		101.425675		2.849081		1.919412		-13.716040		98.128693		-14.533249		26.564633		60.997804		98.746938		-7.097379		1.272142		-16.120243		
0.221944		1.857982		-17.191201		90.524896		-0.033616		1.634860		1.585460		83.156102		-9.322691		10.081336		-139.272021		18.857606		10.121019		8.999090		74.345130		-4.266250		4.481631		-140.873600		31.657335		6.109896		9.526124		-42.553453		-2.567151		2.326234		28.576832		9.957721		-4.765656		84.081984		-26.485336		17.615216		69.578011		101.230889		2.862810		1.965640		-13.865277		98.892108		-14.348898		27.134493		60.750005		98.667983		-7.039105		1.041146		-16.157884		
0.225000		2.012714		-17.253823		90.709627		-0.033763		1.635617		1.582101		82.881498		-9.256549		9.949935		-139.199079		18.128565		9.935500		9.060979		73.850979		-4.326613		4.568853		-140.724843		31.701590		6.092042		9.688769		-42.262407		-2.417588		2.368152		28.399047		10.046071		-4.843434		84.554289		-26.646203		17.969698		69.716160		101.001955		2.867099		2.008066		-14.021952		99.601777		-14.179538		27.665693		60.570428		98.535060		-6.969564		0.855133		-16.179201		
0.228056		2.172976		-17.329250		90.891610		-0.033891		1.636370		1.578739		82.638532		-9.173220		9.805721		-139.114821		17.351475		9.753172		9.119096		73.367504		-4.378015		4.673534		-140.570485		31.758618		6.060246		9.856253		-41.959950		-2.264103		2.399901		28.260102		10.123946		-4.917565		85.040242		-26.785317		18.332647		69.819288		100.735766		2.854319		2.076219		-14.188769		100.318606		-14.000459		28.161947		60.360842		98.384444		-6.906268		0.732945		-16.190367		
